<svg width="200" height="200" viewBox="0 0 200 200" fill="none" xmlns="http://www.w3.org/2000/svg">
<path d="M193.742 47.0149L186.136 39.4092L115.684 109.862C106.877 118.668 92.0661 118.668 83.2595 109.862L12.8069 39.8095L5.20117 47.4152L57.6403 99.8544L5.20117 152.294L12.8069 159.899L65.246 107.46L75.6538 117.868C82.0586 124.273 90.4649 127.875 99.2714 127.875C108.078 127.875 116.484 124.273 122.889 117.868L133.297 107.46L185.736 159.899L193.342 152.294L140.903 99.8544L193.742 47.0149Z" fill="white"/>
<path d="M178.931 173.509H20.8126C11.6057 173.509 4 165.904 4 156.697V43.8125C4 34.6057 11.6057 27 20.8126 27H178.931C188.138 27 195.743 34.6057 195.743 43.8125V156.697C195.743 165.904 188.138 173.509 178.931 173.509ZM20.4123 37.8081C17.2099 37.8081 14.8081 40.2098 14.8081 43.4122V156.297C14.8081 159.499 17.2099 161.901 20.4123 161.901H178.53C181.733 161.901 184.135 159.499 184.135 156.297V43.4122C184.135 40.2098 181.733 37.8081 178.53 37.8081H20.4123Z" fill="white"/>
</svg>
